<?xml version="1.0" standalone="no"?>
<!DOCTYPE svg PUBLIC "-//W3C//DTD SVG 20010904//EN"
 "http://www.w3.org/TR/2001/REC-SVG-20010904/DTD/svg10.dtd">
<svg version="1.0" xmlns="http://www.w3.org/2000/svg"
 width="1368.000000pt" height="1368.000000pt" viewBox="0 0 1368.000000 1368.000000"
 preserveAspectRatio="xMidYMid meet">

<g transform="translate(0.000000,1368.000000) scale(0.100000,-0.100000)"
fill="#000000" stroke="none">
<path d="M5231 9564 c-242 -65 -518 -329 -625 -598 -55 -138 -95 -371 -82
-487 4 -35 10 -107 15 -159 21 -232 144 -573 289 -804 34 -54 62 -100 62 -102
0 -2 -62 -4 -137 -4 -166 0 -289 -27 -418 -91 -138 -68 -286 -214 -349 -344
-66 -137 -71 -164 -71 -430 0 -267 8 -312 80 -455 114 -226 383 -467 723 -646
50 -26 92 -52 92 -56 0 -4 -21 -16 -46 -27 -55 -25 -141 -110 -171 -171 -56
-111 -66 -190 -37 -310 72 -306 477 -674 953 -866 164 -67 601 -173 711 -174
19 0 63 -7 97 -15 161 -38 600 -38 758 0 226 54 278 70 378 119 l108 54 46
-92 c61 -121 107 -187 197 -283 120 -127 278 -227 420 -263 241 -61 662 -45
904 36 274 91 520 255 656 438 140 189 184 280 233 486 15 64 18 122 18 400
-1 301 -2 333 -24 435 -82 387 -267 833 -568 1370 -41 73 -223 350 -309 470
-117 163 -390 495 -573 695 -251 275 -659 666 -942 902 -69 58 -462 355 -561
425 -413 290 -878 500 -1225 552 -109 17 -535 13 -602 -5z m614 -241 c249 -61
563 -191 794 -330 354 -214 806 -562 1186 -912 138 -128 493 -489 606 -616
444 -502 717 -893 966 -1385 120 -236 167 -343 238 -538 124 -342 175 -589
175 -853 0 -210 -43 -389 -136 -570 -107 -208 -310 -373 -583 -476 -255 -96
-613 -110 -844 -32 -215 72 -388 280 -492 592 -140 421 -75 866 163 1119 122
130 270 205 447 228 82 11 255 11 338 1 31 -4 61 -5 65 -2 4 4 13 38 20 76 10
61 9 72 -4 82 -24 18 -154 26 -319 20 -236 -9 -396 -62 -565 -188 -144 -107
-241 -242 -311 -432 -83 -222 -96 -417 -52 -783 5 -40 4 -42 -49 -76 -123 -82
-259 -138 -423 -175 -151 -34 -452 -43 -642 -19 -578 73 -931 194 -1248 425
-97 71 -238 213 -292 295 -139 207 -120 322 64 407 131 60 254 71 728 69 435
-3 461 -3 453 5 -3 3 -171 48 -374 101 -203 52 -432 115 -509 141 -241 79
-520 212 -656 312 -30 22 -71 53 -93 68 -65 47 -201 198 -250 276 -76 123 -99
200 -104 352 -6 228 42 372 168 496 110 108 231 156 421 166 219 12 451 -59
630 -192 41 -30 79 -55 86 -55 7 0 17 10 24 23 6 12 28 39 48 61 l36 38 -49
42 c-388 326 -686 868 -725 1319 -14 158 1 312 40 427 79 229 266 426 474 499
55 20 76 21 265 17 157 -3 224 -9 285 -23z"/>
</g>
</svg>
